<svg viewBox="0 0 200 200" xmlns="http://www.w3.org/2000/svg">
  <!-- Background -->
  <rect x="40" y="35" width="120" height="150" rx="8" fill="white" stroke="#0F172A" stroke-width="2"/>
  
  <!-- Letterhead -->
  <rect x="50" y="45" width="30" height="10" rx="2" fill="#0F172A"/>
  <rect x="110" y="45" width="40" height="4" rx="1" fill="#94A3B8"/>
  <rect x="110" y="52" width="35" height="4" rx="1" fill="#94A3B8"/>
  
  <!-- Reference number -->
  <rect x="50" y="70" width="60" height="3" rx="1" fill="#64748B"/>
  
  <!-- Address Block -->
  <rect x="50" y="85" width="40" height="3" rx="1" fill="#64748B"/>
  <rect x="50" y="91" width="35" height="3" rx="1" fill="#64748B"/>
  <rect x="50" y="97" width="38" height="3" rx="1" fill="#64748B"/>
  
  <!-- Content Lines -->
  <rect x="50" y="115" width="100" height="2" rx="1" fill="#CBD5E1"/>
  <rect x="50" y="122" width="90" height="2" rx="1" fill="#CBD5E1"/>
  <rect x="50" y="129" width="95" height="2" rx="1" fill="#CBD5E1"/>
  <rect x="50" y="136" width="85" height="2" rx="1" fill="#CBD5E1"/>
  
  <!-- Signature Block -->
  <path d="M50 155 C60 150, 70 160, 80 155" stroke="#0F172A" stroke-width="2" fill="none"/>
  <rect x="50" y="165" width="40" height="3" rx="1" fill="#64748B"/>
  <rect x="50" y="171" width="30" height="2" rx="1" fill="#94A3B8"/>
  
  <!-- Stamp Effect -->
  <circle cx="150" cy="160" r="15" fill="none" stroke="#0F172A" stroke-width="2" stroke-dasharray="2 2"/>
</svg>