<svg viewBox="0 0 200 200" xmlns="http://www.w3.org/2000/svg">
  <!-- Background -->
  
  <!-- Paper with fold -->
  <path d="M40 40 L160 40 L160 160 L40 160 L40 40" fill="white" stroke="#64748B" stroke-width="2"/>
  <path d="M40 80 L160 80" stroke="#64748B" stroke-width="1" stroke-dasharray="2 2"/>
  
  <!-- Letter content -->
  <!-- Header -->
  <rect x="120" y="50" width="30" height="3" rx="1" fill="#94A3B8"/>
  <rect x="120" y="55" width="25" height="3" rx="1" fill="#94A3B8"/>
  <rect x="120" y="60" width="28" height="3" rx="1" fill="#94A3B8"/>
  
  <!-- Date -->
  <rect x="50" y="90" width="20" height="3" rx="1" fill="#64748B"/>
  
  <!-- Address -->
  <rect x="50" y="100" width="40" height="3" rx="1" fill="#64748B"/>
  <rect x="50" y="105" width="35" height="3" rx="1" fill="#64748B"/>
  <rect x="50" y="110" width="38" height="3" rx="1" fill="#64748B"/>
  
  <!-- Content -->
  <rect x="50" y="125" width="100" height="2" rx="1" fill="#CBD5E1"/>
  <rect x="50" y="130" width="90" height="2" rx="1" fill="#CBD5E1"/>
  <rect x="50" y="135" width="95" height="2" rx="1" fill="#CBD5E1"/>
  
  <!-- Signature -->
  <path d="M50 150 C60 145, 70 155, 80 150" stroke="#2563EB" stroke-width="2" fill="none"/>
  
  <!-- Watermark -->
  <path d="M100 100 m-30,-30 l60,60 m-60,0 l60,-60" stroke="#F1F5F9" stroke-width="4" stroke-linecap="round"/>
</svg>